<svg width="197" height="22" viewBox="0 0 197 22" fill="none" xmlns="http://www.w3.org/2000/svg">
<path d="M160.225 5L160.251 13.2155L152.936 5H151V18H153.775L153.749 9.78449L161.066 18H163V5H160.225Z" fill="white"/>
<path d="M183 5H180V18H183V5Z" fill="white"/>
<path d="M192.15 10.1899C195.749 10.5107 197 11.4991 197 13.8973C197 16.096 195.6 18 191.501 18C190.25 18 187.975 17.6792 187.226 17.3567V15.0331C188.051 15.3296 189.901 15.6504 191.526 15.6504C193.75 15.6504 194.525 15.0088 194.525 13.9198C194.525 12.98 193.901 12.6106 191.925 12.4372C188.251 12.1164 187 11.2754 187 9.02641C187 6.77738 188.426 5 192.25 5C193.476 5 195.125 5.09884 196.425 5.64332V7.91663C195.174 7.52128 193.799 7.34787 192.225 7.34787C190.15 7.34787 189.426 7.86635 189.426 8.90503C189.426 9.79458 190.201 10.0183 192.15 10.1899Z" fill="white"/>
<path d="M168.007 10.8241H170.818C172.31 10.8241 172.578 10.0703 172.578 9.13405C172.578 8.19784 172.31 7.44397 170.818 7.44397H168.007L168 5H170.916C174.068 5 175.12 6.76898 175.12 9.10776C175.12 10.6944 174.484 12.0987 173.165 12.8L176 18H173.066L170.744 13.2418H168.007V10.8241Z" fill="white"/>
<path d="M133.859 14.2451V8.75485C133.859 7.82228 134.262 7.4226 135.208 7.4226H138.223C138.982 7.4226 139.162 7.62594 139.279 8.08522L141.076 14.9709C141.131 15.176 141.193 15.3793 141.26 15.5774H135.208C134.264 15.5774 133.859 15.1795 133.859 14.2451ZM147 15.5774H144.612C144.035 15.5774 143.746 15.5318 143.467 14.5028L141.674 7.62945C141.216 5.86071 140.087 5 138.223 5H135.208C134.161 5 133.28 5.30502 132.632 5.84844C131.984 5.30326 131.105 5 130.056 5H128V7.4226H130.056C131.002 7.4226 131.405 7.82052 131.405 8.75485V14.2451C131.405 16.5258 132.898 18 135.208 18H147V15.5774Z" fill="#008499"/>
<path d="M21.0778 0.75H0V21.8278H21.0778V0.75Z" fill="#00758D"/>
<path d="M14.9486 17.2495H6.03967V15.7937L9.04332 11.2223L6.2064 7.07143V5.56836H14.9536L14.9486 9.07967H13.3933L12.8557 7.48701H9.16775L11.619 11.2173L8.84922 15.3309H12.8483L13.3709 13.5665H14.9486V17.2495Z" fill="white"/>
<path d="M37.8505 5.8457H35.561V16.957H37.8505V5.8457Z" fill="white"/>
<path d="M72.9561 5.55718C71.9109 5.55718 70.0221 5.82345 69.1561 6.2241V8.33437C69.9549 8.02331 71.6446 7.66745 72.9561 7.66745C74.5562 7.66745 75.0017 8.24479 75.0017 9.44426V9.66573L72.4907 9.86482C69.2009 10.1311 68.3797 11.6864 68.3797 13.4433C68.3797 15.3769 69.3353 17.2433 72.4235 17.2433C73.2696 17.2433 74.1805 17.0094 75.0017 16.5888V16.9546H77.2687V9.42186C77.2687 7.11002 76.3803 5.55469 72.9561 5.55469M75.0017 14.4437C74.4019 14.7996 73.4015 15.133 72.4683 15.133C70.8458 15.133 70.6691 14.1998 70.6691 13.4433C70.6691 12.6868 71.0698 11.888 72.4683 11.7536L75.0017 11.5321V14.4437Z" fill="white"/>
<path d="M82.1413 14.8463C85.6974 12.5569 87.8301 11.2678 87.8301 9.20233C87.8301 7.13686 86.7202 5.55664 83.2736 5.55664C82.206 5.55664 80.5835 5.84531 79.7623 6.17877V8.33384C80.6507 8.02277 81.8949 7.66691 83.296 7.66691C85.0952 7.66691 85.6078 8.42342 85.6078 9.17745C85.6078 9.86677 85.4535 10.3097 84.5626 10.999L79.0058 15.2221V16.9541H88.2954V14.8438H82.1388L82.1413 14.8463Z" fill="white"/>
<path d="M62.7756 5.55664C61.8424 5.55664 60.6877 5.8901 59.7744 6.46744C59.6849 6.53463 59.5978 6.60182 59.4858 6.66901C58.8413 5.95729 57.8185 5.55664 56.3303 5.55664C55.5713 5.55664 54.6655 5.77812 53.8642 6.17131V5.84531H51.5748V16.9566H53.8642V8.20195C54.4639 7.91328 55.2851 7.6694 56.3303 7.6694C57.4626 7.6694 58.02 8.20195 58.02 9.29192V16.9591H60.3095V9.13763C60.3095 8.82657 60.2871 8.5155 60.2423 8.24923C60.2647 8.22683 60.2871 8.22683 60.3095 8.20443C60.9092 7.91576 61.7304 7.67189 62.7756 7.67189C63.9079 7.67189 64.4653 8.20443 64.4653 9.29441V16.9616H66.7548V9.14012C66.7548 6.94026 65.5553 5.56162 62.7781 5.56162" fill="white"/>
<path d="M32.9954 13.4216C32.9954 11.5203 32.2812 10.4378 29.1257 10.1367C27.4833 9.98493 27.1598 9.66142 27.1598 9.03431C27.1598 8.25789 27.5057 7.65069 29.1705 7.65069C30.4446 7.65069 31.44 7.93189 32.5001 8.2778V6.22477C31.3753 5.72706 30.1883 5.59766 29.1929 5.59766C26.0598 5.59766 25.042 7.41428 25.042 9.03431C25.042 10.6543 25.6915 11.824 28.8893 12.1027C30.5765 12.2545 30.8353 12.7298 30.8353 13.444C30.8353 14.1582 30.3376 14.86 28.5882 14.86H28.5832V16.9677C31.9203 16.9628 32.9979 15.1511 32.9979 13.4241" fill="white"/>
<path d="M47.3318 5.85063V6.89582C46.9809 6.50263 46.5927 6.19405 46.1622 5.97257C45.6296 5.69883 44.9801 5.56445 44.2186 5.56445C43.2282 5.56445 42.3796 5.81082 41.6729 6.30106C40.9661 6.7913 40.4286 7.48062 40.0628 8.36902C39.6945 9.25494 39.5128 10.2802 39.5128 11.4424C39.5128 12.6045 39.7119 13.5825 40.1101 14.4584C40.5082 15.3344 41.0731 16.0188 41.8047 16.509C42.5364 17.0017 43.3775 17.2481 44.3356 17.2481C45.5525 17.2481 46.5529 16.8126 47.3343 15.9391V15.9988C47.3343 17.7358 47.1078 18.8905 46.5952 19.4554C46.09 20.0153 45.6918 20.2965 44.6242 20.2965C43.8628 20.2965 43.273 20.1497 42.8524 19.8561C42.4343 19.5624 42.1805 19.1095 42.0909 18.4973H40.0503C40.1723 19.535 40.5729 20.3463 41.2523 20.9261C41.9964 21.5632 43.3028 21.8792 44.6541 21.8792C46.3662 21.8792 47.6428 21.4313 48.4217 20.4807C49.2405 19.4753 49.6212 18.0096 49.6212 16.397V5.85063H47.3318ZM46.0253 14.7844C45.6022 15.0955 45.0971 15.2523 44.5098 15.2523C43.9225 15.2523 43.4372 15.098 43.0167 14.7844C42.5986 14.4734 42.2776 14.0254 42.0536 13.4382C41.8321 12.8509 41.7201 12.1541 41.7201 11.3428C41.7201 10.5316 41.8321 9.86961 42.0536 9.29973C42.2751 8.72986 42.5861 8.29686 42.9868 8.00072C43.3874 7.70707 43.8478 7.55776 44.3654 7.55776C44.9726 7.55776 45.4977 7.71205 45.9432 8.02063C46.3861 8.32921 46.7271 8.77216 46.961 9.34701C47.1949 9.92435 47.3119 10.6012 47.3119 11.3801C47.3119 12.1591 47.2024 12.8658 46.9834 13.4481C46.7644 14.0279 46.4434 14.4734 46.0203 14.7869" fill="white"/>
</svg>