<svg width="177" height="22" viewBox="0 0 177 22" fill="none" xmlns="http://www.w3.org/2000/svg">
<path d="M140.225 4L140.251 12.2155L132.936 4H131V17H133.775L133.749 8.78449L141.066 17H143V4H140.225Z" fill="white"/>
<path d="M163 4H160V17H163V4Z" fill="white"/>
<path d="M172.15 9.18994C175.749 9.51074 177 10.4991 177 12.8973C177 15.096 175.6 17 171.501 17C170.25 17 167.975 16.6792 167.226 16.3567V14.0331C168.051 14.3296 169.901 14.6504 171.526 14.6504C173.75 14.6504 174.525 14.0088 174.525 12.9198C174.525 11.98 173.901 11.6106 171.925 11.4372C168.251 11.1164 167 10.2754 167 8.02641C167 5.77738 168.426 4 172.25 4C173.476 4 175.125 4.09884 176.425 4.64332V6.91663C175.174 6.52128 173.799 6.34787 172.225 6.34787C170.15 6.34787 169.426 6.86635 169.426 7.90503C169.426 8.79458 170.201 9.01827 172.15 9.18994Z" fill="white"/>
<path d="M148.007 9.82414H150.818C152.31 9.82414 152.578 9.07026 152.578 8.13405C152.578 7.19784 152.31 6.44397 150.818 6.44397H148.007L148 4H150.916C154.068 4 155.12 5.76898 155.12 8.10775C155.12 9.6944 154.484 11.0987 153.165 11.8L156 17H153.066L150.744 12.2418H148.007V9.82414Z" fill="white"/>
<path d="M113.859 13.2451V7.75485C113.859 6.82228 114.262 6.4226 115.208 6.4226H118.223C118.982 6.4226 119.162 6.62594 119.279 7.08522L121.076 13.9709C121.131 14.176 121.193 14.3793 121.26 14.5774H115.208C114.264 14.5774 113.859 14.1795 113.859 13.2451ZM127 14.5774H124.612C124.035 14.5774 123.746 14.5318 123.467 13.5028L121.674 6.62945C121.216 4.86071 120.087 4 118.223 4H115.208C114.161 4 113.28 4.30502 112.632 4.84844C111.984 4.30326 111.105 4 110.056 4H108V6.4226H110.056C111.002 6.4226 111.405 6.82052 111.405 7.75485V13.2451C111.405 15.5258 112.898 17 115.208 17H127V14.5774Z" fill="#008499"/>
<path d="M21.0778 0H0V21.0778H21.0778V0Z" fill="#00758D"/>
<path d="M14.9486 16.4995H6.03967V15.0437L9.04333 10.4723L6.2064 6.32143V4.81836H14.9536L14.9486 8.32967H13.3933L12.8557 6.73701H9.16775L11.619 10.4673L8.84922 14.5809H12.8483L13.3709 12.8165H14.9486V16.4995Z" fill="white"/>
<path d="M37.8505 5.0957H35.561V16.207H37.8505V5.0957Z" fill="white"/>
<path d="M72.956 4.80718C71.9109 4.80718 70.0221 5.07345 69.1561 5.4741V7.58437C69.9549 7.27331 71.6446 6.91745 72.956 6.91745C74.5562 6.91745 75.0016 7.49479 75.0016 8.69426V8.91573L72.4907 9.11482C69.2008 9.38109 68.3796 10.9364 68.3796 12.6933C68.3796 14.6269 69.3352 16.4933 72.4235 16.4933C73.2696 16.4933 74.1804 16.2594 75.0016 15.8388V16.2046H77.2687V8.67186C77.2687 6.36002 76.3803 4.80469 72.956 4.80469M75.0016 13.6937C74.4019 14.0496 73.4015 14.383 72.4683 14.383C70.8458 14.383 70.6691 13.4498 70.6691 12.6933C70.6691 11.9368 71.0697 11.138 72.4683 11.0036L75.0016 10.7821V13.6937Z" fill="white"/>
<path d="M82.1413 14.0963C85.6974 11.8069 87.8301 10.5178 87.8301 8.45233C87.8301 6.38686 86.7202 4.80664 83.2736 4.80664C82.206 4.80664 80.5835 5.09531 79.7622 5.42877V7.58384C80.6506 7.27277 81.8949 6.91691 83.296 6.91691C85.0952 6.91691 85.6078 7.67342 85.6078 8.42745C85.6078 9.11677 85.4535 9.55973 84.5626 10.249L79.0057 14.4721V16.2041H88.2954V14.0938H82.1388L82.1413 14.0963Z" fill="white"/>
<path d="M62.7756 4.80664C61.8424 4.80664 60.6877 5.1401 59.7744 5.71744C59.6848 5.78463 59.5977 5.85182 59.4857 5.91901C58.8412 5.20729 57.8184 4.80664 56.3303 4.80664C55.5713 4.80664 54.6655 5.02812 53.8642 5.42131V5.09531H51.5747V16.2066H53.8642V7.45195C54.4639 7.16328 55.2851 6.9194 56.3303 6.9194C57.4626 6.9194 58.02 7.45195 58.02 8.54192V16.2091H60.3094V8.38763C60.3094 8.07657 60.287 7.7655 60.2422 7.49923C60.2646 7.47683 60.287 7.47683 60.3094 7.45443C60.9092 7.16576 61.7304 6.92189 62.7756 6.92189C63.9078 6.92189 64.4653 7.45443 64.4653 8.54441V16.2116H66.7547V8.39012C66.7547 6.19026 65.5553 4.81162 62.7781 4.81162" fill="white"/>
<path d="M32.9953 12.6716C32.9953 10.7703 32.2811 9.68784 29.1257 9.38673C27.4832 9.23493 27.1597 8.91142 27.1597 8.28431C27.1597 7.50789 27.5056 6.90069 29.1705 6.90069C30.4446 6.90069 31.44 7.18189 32.5001 7.5278V5.47477C31.3753 4.97706 30.1883 4.84766 29.1929 4.84766C26.0598 4.84766 25.042 6.66428 25.042 8.28431C25.042 9.90434 25.6915 11.074 28.8893 11.3527C30.5765 11.5045 30.8353 11.9798 30.8353 12.694C30.8353 13.4082 30.3376 14.11 28.5881 14.11H28.5832V16.2177C31.9203 16.2128 32.9978 14.4011 32.9978 12.6741" fill="white"/>
<path d="M47.3318 5.10063V6.14582C46.9809 5.75263 46.5927 5.44405 46.1622 5.22257C45.6296 4.94883 44.9801 4.81445 44.2186 4.81445C43.2282 4.81445 42.3796 5.06082 41.6729 5.55106C40.9661 6.0413 40.4286 6.73062 40.0628 7.61902C39.6945 8.50494 39.5128 9.53021 39.5128 10.6924C39.5128 11.8545 39.7119 12.8325 40.1101 13.7084C40.5082 14.5844 41.0731 15.2688 41.8048 15.759C42.5364 16.2517 43.3775 16.4981 44.3356 16.4981C45.5525 16.4981 46.5529 16.0626 47.3343 15.1891V15.2488C47.3343 16.9858 47.1078 18.1405 46.5952 18.7054C46.09 19.2653 45.6918 19.5465 44.6243 19.5465C43.8628 19.5465 43.273 19.3997 42.8524 19.1061C42.4343 18.8124 42.1805 18.3595 42.0909 17.7473H40.0503C40.1723 18.785 40.5729 19.5963 41.2523 20.1761C41.9964 20.8132 43.3028 21.1292 44.6541 21.1292C46.3662 21.1292 47.6428 20.6813 48.4217 19.7307C49.2405 18.7253 49.6212 17.2596 49.6212 15.647V5.10063H47.3318ZM46.0253 14.0344C45.6022 14.3455 45.0971 14.5023 44.5098 14.5023C43.9225 14.5023 43.4372 14.348 43.0167 14.0344C42.5986 13.7234 42.2776 13.2754 42.0536 12.6882C41.8321 12.1009 41.7201 11.4041 41.7201 10.5928C41.7201 9.78155 41.8321 9.11961 42.0536 8.54973C42.2751 7.97986 42.5862 7.54686 42.9868 7.25072C43.3875 6.95707 43.8478 6.80776 44.3654 6.80776C44.9726 6.80776 45.4977 6.96205 45.9432 7.27063C46.3861 7.57921 46.7271 8.02216 46.961 8.59701C47.1949 9.17435 47.3119 9.85123 47.3119 10.6301C47.3119 11.4091 47.2024 12.1158 46.9834 12.6981C46.7644 13.2779 46.4434 13.7234 46.0203 14.0369" fill="white"/>
</svg>