<svg width="16" height="21" viewBox="0 0 16 21" fill="none" xmlns="http://www.w3.org/2000/svg">
<path d="M3.4078 0.261719L0.126144 3.28003H3.4078V0.261719Z" fill="#008499"/>
<path fill-rule="evenodd" clip-rule="evenodd" d="M4.59457 4.59457V0H15.7512L15.7499 21.0003H0V4.59457H4.59457ZM6.08354 10.0218V12.9782C6.08354 13.4813 6.29658 13.6955 6.79368 13.6955H9.97907C9.94356 13.5889 9.91086 13.4794 9.88189 13.3689L8.93627 9.66127C8.8746 9.41397 8.78023 9.30448 8.3803 9.30448H6.79368C6.29565 9.30448 6.08354 9.51969 6.08354 10.0218ZM11.7432 13.6955H13V15H6.79368C5.57802 15 4.79219 14.2062 4.79219 12.9782V10.0218C4.79219 9.51874 4.58008 9.30448 4.08204 9.30448H3V8H4.08204C4.63427 8 5.0968 8.1633 5.43786 8.45685C5.77892 8.16424 6.24238 8 6.79368 8H8.3803C9.36143 8 9.95571 8.46346 10.1968 9.41586L11.1405 13.1169C11.2872 13.671 11.4395 13.6955 11.7432 13.6955Z" fill="#008499"/>
</svg>