<svg width="28" height="28" viewBox="0 0 28 28" fill="none" xmlns="http://www.w3.org/2000/svg">
<path d="M14.0165 0.000131147C6.28966 0.000131147 0 6.28234 0 14.0001C0 18.0633 1.7782 21.9226 4.82063 24.5861C5.88088 25.5081 7.07701 26.2598 8.34223 26.8398C10.1537 27.5902 12.068 28 14.0165 28C15.965 28 17.8794 27.5902 19.6576 26.8053C20.9563 26.2252 22.1191 25.4735 23.1792 24.5516C26.2561 21.8881 27.9999 18.0297 27.9999 13.9655C28.0332 6.28221 21.7437 0 14.0168 0L14.0165 0.000131147ZM14.0165 5.22482C17.3665 5.22482 20.0679 7.95616 20.0679 11.269C20.0679 14.5819 17.3333 17.3133 14.0165 17.3133C10.6997 17.3133 7.96513 14.5819 7.96513 11.269C7.96513 7.95616 10.6664 5.22482 14.0165 5.22482ZM22.2215 24.4838C22.119 24.5863 22.0164 24.6542 21.8792 24.7566C21.7087 24.859 21.5715 24.9615 21.401 25.0985C21.2985 25.1664 21.1959 25.2355 21.0587 25.3034C20.8882 25.4058 20.6831 25.5083 20.5113 25.6107C20.4087 25.6786 20.3062 25.7132 20.2382 25.781C19.9651 25.918 19.6575 26.0883 19.3498 26.1908C17.6741 26.9425 15.8626 27.3176 14.0165 27.3176C12.1704 27.3176 10.3587 26.9425 8.64876 26.1908C7.48594 25.6786 6.427 24.9961 5.43468 24.2098C6.25519 21.376 8.92182 19.3949 11.9643 19.3949H16.0668C19.109 19.3949 21.7424 21.3759 22.5629 24.2098C22.4616 24.279 22.3587 24.3814 22.2215 24.4838Z" fill="white"/>
</svg>