<svg width="28" height="28" viewBox="0 0 28 28" fill="none" xmlns="http://www.w3.org/2000/svg">
<path d="M9 19.4997C9 20.1668 8 20.1668 8 19.4997C8 18.8334 9 18.8334 9 19.4997Z" fill="white"/>
<path d="M14 0C6.25396 0 0 6.25396 0 14C0 21.746 6.25396 28 14 28C21.746 28 28 21.746 28 14C28 6.25396 21.746 0 14 0ZM20.0349 12.6936C19.07 13.6586 17.67 13.9065 16.4889 13.4714L9.33333 20.627C8.80469 21.1556 7.93333 21.1556 7.37308 20.627C6.84444 20.0983 6.84444 19.227 7.37308 18.6667L14.5286 11.5112C14.0936 10.3287 14.3415 8.9287 15.3064 7.96513C16.3333 6.93821 17.8269 6.72068 19.0715 7.28093L16.8621 9.49032V11.1395H18.5112L20.7206 8.93007C21.2797 10.1733 21.0621 11.6669 20.0352 12.6939L20.0349 12.6936Z" fill="white"/>
</svg>